<?xml version="1.0"?>
<svg viewBox="0 0 64 64" xmlns="http://www.w3.org/2000/svg">
    <defs>
        <linearGradient id="linear-gradient" gradientUnits="userSpaceOnUse"
            x1="-989.28" y1="52.39" x2="-1010.37" y2="25.08"
            gradientTransform="matrix(-1, 0, 0, 1, -970.2, 0)">
            <stop offset="0" stop-color="#f2f2f2"/>
            <stop offset="1" stop-color="#cfcfcf"/>
        </linearGradient>
        <linearGradient id="linear-gradient-2" gradientUnits="userSpaceOnUse"
            x1="-1062.77" y1="-96.39" x2="-1051.15" y2="-78.75"
            gradientTransform="matrix(0, -1, -1, 0, -44.28, -1021.58)">
            <stop offset="0.02" stop-color="#ffffff"/>
            <stop offset="1" stop-color="#ffffff" stop-opacity="0"/>
        </linearGradient>
    </defs>

    <circle cx="39.8" cy="22" r="12.59" fill="#efcc00"/>
    <line x1="39.8" y1="2" x2="39.8" y2="6.44" stroke="#efcc00" stroke-width="3" stroke-linecap="round" stroke-miterlimit="10" fill="none"/>
    <line x1="39.8" y1="37.56" x2="39.8" y2="42" stroke="#efcc00" stroke-width="3" stroke-linecap="round" stroke-miterlimit="10" fill="none"/>
    <line x1="19.8" y1="22" x2="24.25" y2="22" stroke="#efcc00" stroke-width="3" stroke-linecap="round" stroke-miterlimit="10" fill="none"/>
    <line x1="55.36" y1="22" x2="59.8" y2="22" stroke="#efcc00" stroke-width="3" stroke-linecap="round" stroke-miterlimit="10" fill="none"/>
    <line x1="25.66" y1="7.86" x2="28.8" y2="11" stroke="#efcc00" stroke-width="3" stroke-linecap="round" stroke-miterlimit="10" fill="none"/>
    <line x1="50.8" y1="33" x2="53.94" y2="36.14" stroke="#efcc00" stroke-width="3" stroke-linecap="round" stroke-miterlimit="10" fill="none"/>
    <line x1="25.66" y1="36.14" x2="28.8" y2="33" stroke="#efcc00" stroke-width="3" stroke-linecap="round" stroke-miterlimit="10" fill="none"/>
    <line x1="50.8" y1="11" x2="53.94" y2="7.86" stroke="#efcc00" stroke-width="3" stroke-linecap="round" stroke-miterlimit="10" fill="none"/>
    <path d="M23.5,15.9A17.49,17.49,0,0,1,39,25.22a13.75,13.75,0,1,1,6.92,25.62L23.5,50.9a17.5,17.5,0,0,1,0-35Z" fill="url(#linear-gradient)"/>
    <circle cx="45.89" cy="37.09" r="13.75" transform="rotate(-74.39 45.89 37.09)" fill="url(#linear-gradient-2)"/>

    <line x1="37.84" y1="54.5" x2="48.06" y2="54.5" stroke="#a5a9aa" stroke-width="3" stroke-linecap="round" stroke-miterlimit="10" fill="none"/>
    <line x1="15.94" y1="54.5" x2="32.74" y2="54.5" stroke="#b9c1c6" stroke-width="3" stroke-linecap="round" stroke-miterlimit="10" fill="none"/>
    <line x1="33.23" y1="59.5" x2="44.55" y2="59.5" stroke="#a5a9aa" stroke-width="3" stroke-linecap="round" stroke-miterlimit="10" fill="none"/>
    <line x1="19.96" y1="59.5" x2="27.65" y2="59.5" stroke="#a5a9aa" stroke-width="3" stroke-linecap="round" stroke-miterlimit="10" fill="none"/>
</svg>
