<?xml version="1.0"?>
<svg viewBox="0 0 64 64" xmlns="http://www.w3.org/2000/svg">
    <defs>
        <linearGradient id="linear-gradient" gradientUnits="userSpaceOnUse"
            x1="-545.28" y1="52.39" x2="-566.37" y2="25.08"
            gradientTransform="matrix(-1, 0, 0, 1, -526.2, 0)">
            <stop offset="0" stop-color="#f2f2f2"/>
            <stop offset="1" stop-color="#cfcfcf"/>
        </linearGradient>
        <linearGradient id="linear-gradient-2" gradientUnits="userSpaceOnUse"
            x1="-626.95" y1="-36.67" x2="-615.34" y2="-19.02"
            gradientTransform="matrix(0, -1, -1, 0, 15.44, -585.77)">
            <stop offset="0.02" stop-color="#fff"/>
            <stop offset="1" stop-color="#fff" stop-opacity="0"/>
        </linearGradient>
    </defs>

    <circle cx="39.8" cy="22" r="12.59" fill="#efcc00"/>
    <line x1="39.8" y1="2" x2="39.8" y2="6.44" stroke="#efcc00" stroke-width="3" stroke-linecap="round" stroke-miterlimit="10" fill="none"/>
    <line x1="39.8" y1="37.56" x2="39.8" y2="42" stroke="#efcc00" stroke-width="3" stroke-linecap="round" stroke-miterlimit="10" fill="none"/>
    <line x1="19.8" y1="22" x2="24.25" y2="22" stroke="#efcc00" stroke-width="3" stroke-linecap="round" stroke-miterlimit="10" fill="none"/>
    <line x1="55.36" y1="22" x2="59.8" y2="22" stroke="#efcc00" stroke-width="3" stroke-linecap="round" stroke-miterlimit="10" fill="none"/>
    <line x1="25.66" y1="7.86" x2="28.8" y2="11" stroke="#efcc00" stroke-width="3" stroke-linecap="round" stroke-miterlimit="10" fill="none"/>
    <line x1="50.8" y1="33" x2="53.94" y2="36.14" stroke="#efcc00" stroke-width="3" stroke-linecap="round" stroke-miterlimit="10" fill="none"/>
    <line x1="25.66" y1="36.14" x2="28.8" y2="33" stroke="#efcc00" stroke-width="3" stroke-linecap="round" stroke-miterlimit="10" fill="none"/>
    <line x1="50.8" y1="11" x2="53.94" y2="7.86" stroke="#efcc00" stroke-width="3" stroke-linecap="round" stroke-miterlimit="10" fill="none"/>
    <path d="M23.5,15.9A17.49,17.49,0,0,1,39,25.22a13.75,13.75,0,1,1,6.92,25.62L23.5,50.9a17.5,17.5,0,0,1,0-35Z" fill="url(#linear-gradient)"/>
    <circle cx="45.89" cy="37.09" r="13.75" transform="rotate(-74.39 45.89 37.09)" fill="url(#linear-gradient-2)"/>

    <line x1="32.13" y1="32.1" x2="32.13" y2="42.23" stroke="#9c9fa0" stroke-width="2" stroke-linecap="round" stroke-miterlimit="10" fill="none"/>
    <polyline points="33.3 30.79 32.13 32.26 30.95 30.79" stroke="#9c9fa0" stroke-width="2" stroke-linecap="round" stroke-miterlimit="10" fill="none"/>
    <polyline points="30.95 43.55 32.13 42.08 33.3 43.55" stroke="#9c9fa0" stroke-width="2" stroke-linecap="round" stroke-miterlimit="10" fill="none"/>
    <line x1="36.51" y1="34.63" x2="27.74" y2="39.7" stroke="#9c9fa0" stroke-width="2" stroke-linecap="round" stroke-miterlimit="10" fill="none"/>
    <polyline points="38.24 35 36.38 34.71 37.06 32.96" stroke="#9c9fa0" stroke-width="2" stroke-linecap="round" stroke-miterlimit="10" fill="none"/>
    <polyline points="26.01 39.34 27.87 39.62 27.19 41.38" stroke="#9c9fa0" stroke-width="2" stroke-linecap="round" stroke-miterlimit="10" fill="none"/>
    <line x1="36.51" y1="39.7" x2="27.74" y2="34.63" stroke="#9c9fa0" stroke-width="2" stroke-linecap="round" stroke-miterlimit="10" fill="none"/>
    <polyline points="37.06 41.38 36.38 39.62 38.24 39.34" stroke="#9c9fa0" stroke-width="2" stroke-linecap="round" stroke-miterlimit="10" fill="none"/>
    <polyline points="27.19 32.96 27.87 34.71 26.01 35" stroke="#9c9fa0" stroke-width="2" stroke-linecap="round" stroke-miterlimit="10" fill="none"/>

    <circle cx="26.5" cy="57.63" r="2" fill="#c4c4c4"/>
    <circle cx="36.5" cy="60.63" r="1.5" fill="#e0e0e0"/>
    <circle cx="18.5" cy="53.63" r="1.5" fill="#e0e0e0"/>
    <circle cx="32.5" cy="53.63" r="1" fill="#ffffff"/>
    <circle cx="46.5" cy="60.63" r="1" fill="#ffffff"/>
    <circle cx="17.5" cy="60.63" r="1" fill="#ffffff"/>
    <circle cx="42.5" cy="54.63" r="2" fill="#c4c4c4"/>
</svg>
